<?xml version="1.0" encoding="utf-8"?>
<svg xmlns="http://www.w3.org/2000/svg">
<symbol id="android-line" viewBox="0 0 24 24"><path fill="none" d="M0 0h24v24H0z"/><path d="M19 13H5v7h14v-7zm0-2a7 7 0 0 0-14 0h14zM6.382 3.968A8.962 8.962 0 0 1 12 2c2.125 0 4.078.736 5.618 1.968l1.453-1.453 1.414 1.414-1.453 1.453A8.962 8.962 0 0 1 21 11v10a1 1 0 0 1-1 1H4a1 1 0 0 1-1-1V11c0-2.125.736-4.078 1.968-5.618L3.515 3.93l1.414-1.414 1.453 1.453zM9 9a1 1 0 1 1 0-2 1 1 0 0 1 0 2zm6 0a1 1 0 1 1 0-2 1 1 0 0 1 0 2z"/>
</symbol>
<symbol id="apple-fill" viewBox="0 0 24 24"><path fill="none" d="M0 0h24v24H0z"/><path d="M11.624 7.222c-.876 0-2.232-.996-3.66-.96-1.884.024-3.612 1.092-4.584 2.784-1.956 3.396-.504 8.412 1.404 11.172.936 1.344 2.04 2.856 3.504 2.808 1.404-.06 1.932-.912 3.636-.912 1.692 0 2.172.912 3.66.876 1.512-.024 2.472-1.368 3.396-2.724 1.068-1.56 1.512-3.072 1.536-3.156-.036-.012-2.94-1.128-2.976-4.488-.024-2.808 2.292-4.152 2.4-4.212-1.32-1.932-3.348-2.148-4.056-2.196-1.848-.144-3.396 1.008-4.26 1.008zm3.12-2.832c.78-.936 1.296-2.244 1.152-3.54-1.116.048-2.46.744-3.264 1.68-.72.828-1.344 2.16-1.176 3.432 1.236.096 2.508-.636 3.288-1.572z"/>
</symbol>
<symbol id="bilibili-line" viewBox="0 0 24 24"><path fill="none" d="M0 0h24v24H0z"/><path d="M7.172 2.757L10.414 6h3.171l3.243-3.242a1 1 0 0 1 1.415 1.415l-1.829 1.827L18.5 6A3.5 3.5 0 0 1 22 9.5v8a3.5 3.5 0 0 1-3.5 3.5h-13A3.5 3.5 0 0 1 2 17.5v-8A3.5 3.5 0 0 1 5.5 6h2.085L5.757 4.171a1 1 0 0 1 1.415-1.415zM18.5 8h-13a1.5 1.5 0 0 0-1.493 1.356L4 9.5v8a1.5 1.5 0 0 0 1.356 1.493L5.5 19h13a1.5 1.5 0 0 0 1.493-1.356L20 17.5v-8A1.5 1.5 0 0 0 18.5 8zM8 11a1 1 0 0 1 1 1v2a1 1 0 0 1-2 0v-2a1 1 0 0 1 1-1zm8 0a1 1 0 0 1 1 1v2a1 1 0 0 1-2 0v-2a1 1 0 0 1 1-1z"/>
</symbol>
<symbol id="centos-fill" viewBox="0 0 24 24"><path fill="none" d="M0 0H24V24H0z"/><path d="M12 13.06l4.47 4.471L12 22l-4.47-4.47L12 13.06zm-8 3.06L7.879 20H4v-3.88zm16 0V20h-3.88L20 16.12zm-2.47-8.59L22 12l-4.469 4.47-4.47-4.47 4.469-4.47zm-11.06 0L10.94 12l-4.471 4.469L2 12l4.47-4.47zM12 2l4.469 4.469L12 10.939 7.53 6.47 12 2zM7.879 4l-3.88 3.879L4 4h3.879zM20 4v3.879l-3.88-3.88L20 4z"/>
</symbol>
<symbol id="cloud-line" viewBox="0 0 24 24"><path fill="none" d="M0 0h24v24H0z"/><path d="M17 21H7A6 6 0 0 1 5.008 9.339a7 7 0 1 1 13.984 0A6 6 0 0 1 17 21zm0-12a5 5 0 1 0-9.994.243l.07 1.488-1.404.494A4.002 4.002 0 0 0 7 19h10a4 4 0 1 0-3.796-5.265l-1.898-.633A6.003 6.003 0 0 1 17 9z"/>
</symbol>
<symbol id="home-2-line" viewBox="0 0 24 24"><path fill="none" d="M0 0h24v24H0z"/><path d="M19 21H5a1 1 0 0 1-1-1v-9H1l10.327-9.388a1 1 0 0 1 1.346 0L23 11h-3v9a1 1 0 0 1-1 1zM6 19h12V9.157l-6-5.454-6 5.454V19z"/>
</symbol>
<symbol id="medal-2-line" viewBox="0 0 24 24"><path fill="none" d="M0 0h24v24H0z"/><path d="M12 8.5l2.116 5.088 5.492.44-4.184 3.584 1.278 5.36L12 20.1l-4.702 2.872 1.278-5.36-4.184-3.584 5.492-.44L12 8.5zm0 5.207l-.739 1.777-1.916.153 1.46 1.251-.447 1.871L12 17.756l1.641 1.003-.446-1.87 1.459-1.252-1.915-.153L12 13.707zM8 2v9H6V2h2zm10 0v9h-2V2h2zm-5 0v5h-2V2h2z"/>
</symbol></svg>