<?xml version="1.0" encoding="UTF-8"?>
<!-- Generator: Adobe Illustrator 25.2.1, SVG Export Plug-In . SVG Version: 6.00 Build 0)  -->
<svg xmlns="http://www.w3.org/2000/svg" xmlns:xlink="http://www.w3.org/1999/xlink" version="1.1" id="Capa_1" x="0px" y="0px" viewBox="100 50 300 300" style="enable-background:new 0 0 512 512;" xml:space="preserve" >
<g id="cat">
	<path style="fill:#FFFFFF;" d="M497.059,450.7c-14.375-12.649-26.242-25.104-36.283-38.085   c-7.757-10.004-14.846-20.949-21.703-31.534c-4.097-6.326-8.335-12.867-12.721-19.226c-10.215-14.757-24.443-33.39-43.953-46.594   c-7.286-4.928-15.14-8.868-23.137-11.635c3.909-4.006,7.555-8.21,10.899-12.572c7.388-9.612,11.786-17.994,13.943-22.644   l9.437,1.829c0.533,0.104,1.083,0.156,1.636,0.156c4.089,0,7.624-2.914,8.405-6.934c0.897-4.633-2.142-9.134-6.776-10.034   l-12.017-2.33c-0.204-1.03-0.433-2.135-0.689-3.309l20.828,0.081c4.713,0,8.555-3.834,8.562-8.51   c0.015-2.291-0.865-4.449-2.477-6.076c-1.612-1.629-3.763-2.53-6.052-2.538l-25.435-0.099c-0.152-0.482-0.307-0.964-0.463-1.446   l27.329-5.437c2.248-0.445,4.187-1.739,5.459-3.645c1.272-1.905,1.724-4.192,1.276-6.422c-0.793-3.997-4.322-6.898-8.39-6.898   c-0.6,0-1.2,0.064-1.678,0.168l-24.993,4.974c6.112-26.377,7.586-53.999,4.284-80.74l10.691-1.014   c7.07-0.669,8.844-5.407,9.219-6.844c0.374-1.433,1.145-6.42-4.656-10.434l-13.632-9.435c-1.031-0.715-2.443-3.088-2.56-4.304   l-1.557-16.301c-0.62-6.509-4.959-9.422-8.985-9.422c-2.194,0-5.399,0.823-8.239,4.718c-0.457-2.27-1.015-4.519-1.671-6.741   l2.622-0.249c7.67-0.725,9.693-5.376,10.206-7.341c0.512-1.96,1.026-6.989-5.257-11.336l-5.118-3.543l51.803,10.016   c0.65,0.122,1.309,0.184,1.955,0.184c5.011,0,9.338-3.573,10.289-8.496c0.53-2.749-0.04-5.54-1.607-7.86   c-1.568-2.322-3.947-3.893-6.697-4.424L344.97,24.033l-1.302-13.636C342.938,2.723,338.047,0,334.079,0   c-2.38,0-5.894,0.934-9.107,5.383l-9.376,12.971L254.041,6.453c-0.648-0.124-1.311-0.187-1.97-0.187   c-5.016,0-9.348,3.57-10.304,8.495c-1.095,5.674,2.628,11.184,8.303,12.282l2.83,0.547c-0.375,0.12-0.75,0.239-1.125,0.361   c-5.026,1.632-10.065,3.829-14.966,6.496l-3.421-4.955c-3.036-4.399-6.629-5.056-8.5-5.056c-3.714,0-8.342,2.489-9.164,9.502   L213.654,51.6c-0.015,0.131-0.056,0.281-0.092,0.427c-2.118,2.176-4.121,4.449-5.986,6.808l-11.94,8.232   c-5.832,4.022-5.335,8.804-4.851,10.673c0.26,1,1.188,3.584,4.085,5.327c-0.15,0.538-0.304,1.076-0.438,1.617   c-0.811,3.282-1.325,6.62-1.569,9.978c-3.324-4.111-6.837-8.065-10.566-11.824c-1.857-1.86-3.375-3.252-4.883-4.486   c-6.252-5.181-12.314-7.7-18.532-7.7l-0.22,0.001c-11.667,0.133-20.115,9.188-25.455,15.986   c-10.747,13.675-19.633,28.658-26.506,44.571c4.478-18.752,6.5-38.862-2.14-54.232c-4.003-7.122-11.399-11.373-19.786-11.373   c-2.055,0-4.133,0.256-6.173,0.761c-7.089,1.752-12.802,5.999-16.986,9.502c-8.943,7.487-16.904,16.696-23.663,27.368   c-20.517,32.398-29.854,74.534-26.29,118.645c1.715,21.228,6.47,42.013,14.136,61.776c1.141,2.943,8.701,17.717,15.66,30.44   c-7.895,14.72-13.294,30.233-16.064,46.168c-4.64,26.69-2.011,54.39,7.589,80.453c-11.471,9.792-20.147,21.966-25.272,35.518   c-1.627,2.698-2.623,5.61-2.963,8.67c-0.637,5.748,1.098,11.298,5.017,16.05c5.064,6.139,13.167,10.215,21.685,10.903   c1.185,0.094,2.395,0.142,3.592,0.142c11.241,0,21.329-4.022,31.083-7.912l0.165-0.066c8.614-3.436,16.75-6.681,24.817-6.681   c0.238,0,0.477,0.003,0.716,0.009c6.232,0.152,12.91,2.449,19.437,4.695c3.461,1.19,7.039,2.42,10.75,3.424   c3.471,0.935,8.865,2.051,14.858,2.051c10.405,0,19.037-3.423,24.98-9.918c1.872-2.06,2.549-4.8,2.069-7.354   c0.648-0.001,1.293-0.009,1.911-0.031c2.392-0.072,4.258-0.795,5.656-1.849h39.844c1.031,0.441,2.15,0.679,3.295,0.679   c0.784,0,1.554-0.106,2.31-0.318c0.15,0.037,0.302,0.07,0.455,0.099c0.449,0.086,0.904,0.129,1.361,0.129h25.441   c0.25,0.039,0.518,0.069,0.805,0.084v-0.001c0.159,0.009,0.327,0.014,0.465,0.014c0.434,0,0.866-0.032,1.291-0.097h67.06   c2.503,0,4.807-0.199,6.958-0.604c0.847,0.276,1.742,0.421,2.652,0.421c2.088,0,4.1-0.761,5.676-2.151   c1.139-1.008,2.313-2.135,3.576-3.43c2.554-1.972,4.78-4.432,6.737-7.453l33.74,0.001c8.213,0,18.425,0,28.289-1.762   c0.044-0.007,0.087-0.013,0.131-0.019c2.106,0.801,4.392,1.622,7.057,2.531c20.351,6.867,41.568,10.349,63.059,10.349   c3.95,0,7.945-0.122,11.877-0.362c0.133-0.005,0.615-0.031,0.72-0.04c2.505-0.196,4.738-0.545,6.76-1.051   c5.829-1.4,10.212-3.947,12.968-7.493c1.039-1.298,1.856-2.766,2.432-4.364c0.411-1.079,0.689-2.231,0.824-3.396   C508.403,460.701,500.745,453.949,497.059,450.7z"/>
	<g>
		<g>
			<g>
				<g>
					<path style="fill:#FFCCAE;" d="M492.552,456.143c-13.523-11.897-26.198-24.831-37.223-39.084       c-12.604-16.256-22.97-34.137-34.655-51.076c-11.709-16.915-24.996-33.171-42.053-44.715       c-10.09-6.825-21.672-11.847-33.626-13.971c8.231-7.003,14.714-14.154,19.703-20.661c8.293-10.79,12.534-19.79,14.065-23.418       c0.471-1.107,0.612-2.309,0.448-3.487c-0.727-5.069-3.308-20.452-10.596-39.045l0.56-109.047       c-1.013-1.272-2.238-2.379-3.675-3.251c-5.866-3.581-13.452-2.167-19.954,0.094c-18.629,6.486-34.536,18.606-49.715,31.347       c-12.859-5.856-27.663-10.11-44.71-12.029c-16.544-1.863-31.542-1.568-45.15,0.351l-32.902-44.218       c-4.123-3.416-8.811-6.078-14.041-6.031c-8.222,0.094-14.748,6.738-19.837,13.217c-25.531,32.487-40.255,73.258-41.703,114.54       c-7.845,14.119-11.866,25.753-13.236,30.136c-0.377,1.225-0.4,2.544-0.071,3.793c1.078,3.964,4.051,13.689,10.082,25.713       c-9.735,6.806-18.624,14.802-26.455,23.739c-7.392-42.029,11.17-87.471,22.757-127.128c6.567-22.476,20.511-59.05,7.959-81.381       c-3.643-6.482-10.881-8.862-17.898-7.127c-5.288,1.307-9.894,4.526-14.071,8.023c-8.725,7.305-16.112,16.088-22.191,25.689       c-21.047,33.235-28.322,75.399-25.189,114.182c1.65,20.43,6.256,40.627,13.669,59.738c1,2.578,9.489,19.214,17.158,33.022       c-8.366,14.698-14.281,30.781-17.178,47.449c-7.232,41.605,4.406,86.108,31.074,118.855c0.612-0.212,2.356,0.942,2.968,0.754       h150.99c1.013,0,0.189,0.4,1.178,0.589h95.061c3.228,0,5.984-0.401,8.363-1.178c2.215-0.683,4.099-1.649,5.748-2.851h0.023       c3.11-2.309,5.324-5.395,7.115-8.905c0-0.024,0.024-0.024,0.024-0.047c0.047-0.071,0.07-0.165,0.118-0.236h35.739       c9.801,0,19.695,0.071,29.355-1.673c0.683-0.094,1.343-0.212,2.003-0.353c2.851,1.131,5.748,2.167,8.646,3.157       c23.182,7.822,47.872,11.12,72.303,9.612c0.165,0,0.306-0.024,0.471-0.024c1.814-0.141,3.746-0.401,5.631-0.872       c3.628-0.872,7.021-2.427,9-4.971c0.565-0.707,0.989-1.484,1.296-2.356c0.212-0.542,0.353-1.131,0.424-1.743       C500.986,463.989,496.534,459.654,492.552,456.143z"/>
					<path style="fill:#FF7A79;" d="M177.45,87.963c-1.39-1.39-2.827-2.756-4.382-4.029c-0.942,0.141-1.861,0.4-2.78,0.73       c-7.185,2.568-12.133,9.164-16.044,15.737c-5.843,11.638-11.355,22.805-15.172,35.339c-1.932,6.385-3.581,12.887-5.042,19.413       c-0.393,1.76-1.161,4.199-1.928,6.822c18.04-15.961,42.134-29.347,73.867-33.823C198.734,113.321,189.067,99.675,177.45,87.963       z"/>
					<path style="fill:#FF7A79;" d="M360.81,203.473c3.068,5.899,5.641,11.696,7.804,17.214c8.544-30.118,10.703-62.011,6.237-92.98       c-0.801-5.654-2.167-11.779-5.678-16.067c-5.442-1.249-11.261,1.673-16.138,4.712c-10.513,6.548-30.851,18.401-41.084,32.237       C335.296,163.514,350.707,184.018,360.81,203.473z"/>
				</g>
				<g>
					<path style="fill:#F7B89F;" d="M117.256,294.051c70.812-24.216,152.157-15.466,216.199,23.255       c-32.627,20.149-74.077,28.265-112.294,25.098C182.945,339.238,146.122,319.296,117.256,294.051z"/>
				</g>
				<g>
					<g>
						
							<ellipse transform="matrix(0.1387 -0.9903 0.9903 0.1387 -12.2443 359.802)" style="fill:#523E3F;" cx="200.731" cy="186.94" rx="15.303" ry="15.303"/>
					</g>
					<g>
						<circle style="fill:#523E3F;" cx="310.205" cy="198.369" r="15.303"/>
					</g>
					<g>
						<g>
							<path style="fill:#523E3F;" d="M263.688,204.881c-0.768-0.176-1.546-0.316-2.326-0.419c-1.992-0.263-3.986-0.277-5.988-0.143         c-1.398,0.093-2.772,0.251-4.152,0.485c-1.281,0.218-2.598,0.476-3.708,1.19c-0.552,0.355-1.051,0.838-1.271,1.455         c-0.298,0.834-0.035,1.786,0.468,2.515c0.503,0.729,1.221,1.279,1.926,1.815c2.808,2.145,5.681,4.221,8.447,6.421         c0.428,0.325,0.795,0.828,1.402,0.673c0.442-0.113,0.844-0.362,1.223-0.606c0.417-0.27,0.873-0.488,1.32-0.717         c0.976-0.498,1.951-0.999,2.924-1.502c2.323-1.199,4.742-2.247,6.843-3.832c0.437-0.33,0.866-0.688,1.163-1.147         c0.298-0.459,0.451-1.039,0.296-1.564c-0.259-0.879-1.208-1.467-1.934-1.924c-0.891-0.56-1.829-1.046-2.797-1.46         C266.287,205.594,265,205.182,263.688,204.881z"/>
						</g>
						<g>
							<path style="fill:#523E3F;" d="M242.32,233.432c-0.401-0.034-0.796-0.092-1.185-0.175c-2.838-0.601-4.987-2.438-6.047-5.17         c-1.704-4.392,2.571-7.688,4.396-9.096c0.436-0.334,1.057-0.252,1.388,0.178c0.334,0.434,0.254,1.055-0.178,1.388         c-2.439,1.88-4.792,4.16-3.762,6.814c1.039,2.676,3.082,3.626,4.614,3.951c2.873,0.604,6.244-0.435,8.414-2.596         c2.645-2.628,4.535-6.102,6.363-9.462c0.374-0.69,0.747-1.376,1.124-2.05c0.268-0.476,0.873-0.648,1.347-0.381         c0.476,0.267,0.648,0.869,0.381,1.347c-0.372,0.667-0.743,1.345-1.114,2.027c-1.895,3.487-3.855,7.09-6.705,9.924         C249.024,232.451,245.518,233.702,242.32,233.432z"/>
						</g>
						<g>
							<path style="fill:#523E3F;" d="M270.182,235.301c-2.593-0.216-5.148-1.387-6.862-3.215         c-2.849-3.041-4.091-7.025-5.292-10.878c-0.342-1.089-0.678-2.17-1.049-3.213c-0.184-0.516,0.087-1.08,0.601-1.264         c0.512-0.188,1.081,0.085,1.264,0.601c0.379,1.067,0.724,2.171,1.072,3.286c1.137,3.641,2.309,7.405,4.848,10.112         c1.731,1.85,4.535,2.865,7.153,2.583c2.102-0.225,3.813-1.278,4.82-2.96c1.401-2.348-0.469-4.896-2.486-7.079         c-0.37-0.401-0.345-1.026,0.057-1.398c0.401-0.368,1.026-0.345,1.399,0.057c1.519,1.645,5.08,5.501,2.729,9.435         c-1.332,2.23-3.573,3.621-6.305,3.914C271.486,235.352,270.834,235.356,270.182,235.301z"/>
						</g>
					</g>
					<g>
						
							<ellipse transform="matrix(0.5257 -0.8507 0.8507 0.5257 -120.8812 233.7999)" style="fill:#F7B89F;" cx="149.232" cy="225.306" rx="42.14" ry="42.14"/>
					</g>
					<g>
						<path style="fill:#F7B89F;" d="M378.762,263.218c-1.531,3.628-5.772,12.628-14.065,23.418        c-2.756,0.565-5.631,0.872-8.552,0.872c-23.276,0-42.124-18.871-42.124-42.147s18.847-42.147,42.124-42.147        c1.578,0,3.133,0.094,4.665,0.259c13.405,25.774,17.457,49.686,18.4,56.259C379.375,260.91,379.233,262.111,378.762,263.218z"/>
					</g>
					<g>
						<g>
							<path style="fill:#523E3F;" d="M157.894,213.99c-0.074,0-0.15-0.012-0.223-0.038l-69.913-24.57         c-0.35-0.123-0.536-0.507-0.412-0.858c0.123-0.351,0.513-0.533,0.858-0.412l69.913,24.57c0.35,0.123,0.536,0.507,0.412,0.858         C158.432,213.816,158.171,213.99,157.894,213.99z"/>
						</g>
						<g>
							<path style="fill:#523E3F;" d="M158.566,223.371c-0.031,0-0.063-0.002-0.093-0.006L84.316,213.09         c-0.368-0.051-0.625-0.391-0.575-0.759c0.052-0.367,0.398-0.622,0.759-0.574l74.157,10.275         c0.368,0.051,0.625,0.391,0.575,0.759C159.184,223.127,158.896,223.371,158.566,223.371z"/>
						</g>
						<g>
							<path style="fill:#523E3F;" d="M90.885,236.773c-0.356,0-0.654-0.28-0.673-0.64c-0.018-0.371,0.268-0.687,0.64-0.706         l67.009-3.35c0.352-0.035,0.687,0.268,0.706,0.639c0.018,0.371-0.268,0.687-0.64,0.706l-67.009,3.35         C90.908,236.772,90.896,236.773,90.885,236.773z"/>
						</g>
					</g>
					<g>
						<g>
							<path style="fill:#523E3F;" d="M332.333,230.499c-0.314,0-0.595-0.222-0.658-0.542c-0.073-0.365,0.164-0.719,0.529-0.792         l72.681-14.462c0.358-0.07,0.718,0.165,0.791,0.529c0.073,0.365-0.164,0.719-0.529,0.792l-72.681,14.462         C332.422,230.495,332.377,230.499,332.333,230.499z"/>
						</g>
						<g>
							<path style="fill:#523E3F;" d="M405.213,239.981c-0.001,0-0.001,0-0.002,0l-74.865-0.289         c-0.372-0.002-0.673-0.304-0.67-0.676c0.001-0.371,0.302-0.671,0.673-0.671c0.001,0,0.001,0,0.002,0l74.865,0.289         c0.372,0.002,0.673,0.304,0.67,0.676C405.885,239.681,405.584,239.981,405.213,239.981z"/>
						</g>
						<g>
							<path style="fill:#523E3F;" d="M395.461,262.507c-0.042,0-0.086-0.004-0.13-0.012l-65.866-12.77         c-0.365-0.071-0.603-0.424-0.532-0.789c0.071-0.365,0.422-0.603,0.789-0.533l65.866,12.77         c0.365,0.071,0.603,0.424,0.532,0.789C396.058,262.283,395.776,262.507,395.461,262.507z"/>
						</g>
					</g>
				</g>
				<g>
					<path style="fill:#523E3F;" d="M229.875,343.319c-0.002,0-0.006,0-0.008,0c-27.694-0.343-55.105-7.677-79.271-21.212       c-24.164-13.535-44.74-33.075-59.501-56.51c-0.198-0.314-0.104-0.73,0.211-0.928c0.316-0.199,0.731-0.103,0.929,0.211       c14.641,23.245,35.05,42.628,59.019,56.054c23.97,13.425,51.16,20.7,78.63,21.039c0.372,0.005,0.669,0.31,0.664,0.682       C230.543,343.023,230.243,343.319,229.875,343.319z"/>
				</g>
				<g>
					<path style="fill:#523E3F;" d="M264.814,343.008c-0.332,0-0.621-0.245-0.666-0.584c-0.049-0.369,0.209-0.707,0.577-0.757       c34.123-4.584,62.904-21.2,81.039-34.333c0.302-0.217,0.721-0.151,0.941,0.15c0.218,0.301,0.151,0.722-0.15,0.94       c-18.261,13.223-47.25,29.955-81.651,34.577C264.874,343.006,264.844,343.008,264.814,343.008z"/>
				</g>
			</g>
			<g>
				<g>
					<path style="fill:#FFE4CF;" d="M294.821,429.427c-13.381,2.097-27.305,8.67-36.469,18.659       c-8.481,9.235-13.923,21.18-15.431,33.619h-23.889c-0.989-0.189-0.165-0.589-1.178-0.589h-4.005       c-4.406-12.227-12.557-23.465-23.559-29.967c-13.169-7.774-30.061-11.685-44.786-7.539c-4.17-23.418,6.055-48.343,24.219-63.68       c18.188-15.337,43.372-21.297,66.908-17.763c16.397,2.45,32.417,9.518,43.796,21.58S298.002,413.172,294.821,429.427z"/>
				</g>
				<g>
					<g>
						<path style="fill:#523E3F;" d="M245.742,481.802c-0.025,0-0.049,0-0.075-0.002c-0.724-0.039-1.277-0.658-1.237-1.383        c0.733-13.031,6.38-25.864,15.494-35.205c9.116-9.343,21.806-15.304,34.815-16.358c0.723-0.046,1.356,0.483,1.414,1.203        c0.059,0.722-0.48,1.355-1.202,1.415c-12.387,1.001-24.469,6.677-33.148,15.571c-8.677,8.894-14.055,21.113-14.752,33.521        C247.012,481.264,246.433,481.802,245.742,481.802z"/>
					</g>
					<g>
						<path style="fill:#523E3F;" d="M323.703,481.522c-0.363,0-0.724-0.15-0.982-0.442c-0.481-0.543-0.43-1.373,0.113-1.852        c13.258-11.727,20.674-28.768,21.446-49.281c0.723-19.199-3.777-38.249-8.128-56.671c-0.167-0.704,0.27-1.413,0.976-1.578        c0.707-0.177,1.411,0.269,1.578,0.975c4.392,18.592,8.934,37.816,8.197,57.37c-0.799,21.249-8.522,38.934-22.329,51.149        C324.323,481.414,324.012,481.522,323.703,481.522z"/>
					</g>
					<g>
						<path style="fill:#523E3F;" d="M264.454,462.599c-3.204,5.796-4.735,12.486-4.453,19.106h-2.615        c-0.283-7.068,1.366-14.183,4.783-20.355c0.33-0.636,1.131-0.872,1.767-0.518        C264.571,461.185,264.807,461.962,264.454,462.599z"/>
					</g>
					<g>
						<path style="fill:#523E3F;" d="M279.861,463.847c-2.756,5.513-3.934,11.756-3.416,17.858h-2.639        c-0.495-6.526,0.777-13.146,3.699-19.036c0.33-0.636,1.107-0.895,1.767-0.589C279.908,462.41,280.191,463.187,279.861,463.847        z"/>
					</g>
				</g>
				<g>
					<g>
						<path style="fill:#523E3F;" d="M214.906,481.796c-0.516,0-1.005-0.308-1.214-0.817c-5.331-12.997-15.631-23.982-28.26-30.137        c-12.967-6.32-27.312-7.774-40.391-4.086c-0.575,0.159-1.198-0.087-1.497-0.614c-10.434-18.353-27.82-32.95-47.699-40.055        c-0.682-0.244-1.037-0.994-0.794-1.677c0.243-0.681,0.993-1.044,1.677-0.794c20.143,7.197,37.798,21.87,48.588,40.345        c13.433-3.511,28.042-1.921,41.265,4.521c13.2,6.435,23.966,17.918,29.537,31.503c0.276,0.669-0.045,1.436-0.715,1.712        C215.24,481.763,215.072,481.796,214.906,481.796z"/>
					</g>
					<g>
						<path style="fill:#523E3F;" d="M186.355,481.116h-3.11c-2.497-3.699-5.937-6.761-9.942-8.788        c-0.66-0.33-0.919-1.107-0.589-1.767c0.33-0.636,1.131-0.895,1.767-0.565C179.405,472.47,183.552,476.381,186.355,481.116z"/>
					</g>
					<g>
						<path style="fill:#523E3F;" d="M205.108,481.116h-2.827c-2.003-4.618-5.442-8.623-9.753-11.308        c-0.613-0.377-0.825-1.178-0.424-1.791c0.377-0.613,1.178-0.825,1.791-0.424C198.983,470.726,202.965,475.556,205.108,481.116        z"/>
					</g>
				</g>
			</g>
			<g>
				<g>
					<path style="fill:#F7B89F;" d="M370.913,343.936c-0.599,1.825-4.332,2.239-8.337,0.923c-4.005-1.315-6.766-3.86-6.167-5.685       c0.599-1.825,4.332-2.239,8.337-0.924C368.751,339.565,371.512,342.111,370.913,343.936z"/>
				</g>
				<g>
					<path style="fill:#F7B89F;" d="M379.697,336.076c-0.599,1.825-4.332,2.239-8.337,0.924c-4.005-1.315-6.766-3.86-6.167-5.686       c0.599-1.825,4.332-2.239,8.337-0.923C377.535,331.705,380.296,334.251,379.697,336.076z"/>
				</g>
				<g>
					<path style="fill:#F7B89F;" d="M389.672,348.672c-0.599,1.825-4.332,2.239-8.337,0.924c-4.005-1.315-6.766-3.86-6.167-5.686       c0.599-1.825,4.332-2.239,8.337-0.924C387.51,344.301,390.271,346.847,389.672,348.672z"/>
				</g>
			</g>
			<g>
				<g>
					<path style="fill:#523E3F;" d="M411.533,469.101c-0.047,0.212-0.165,0.377-0.306,0.518c-2.898-0.99-5.796-2.026-8.646-3.157       c-0.66,0.141-1.319,0.259-2.003,0.353c-13.994-5.348-29.944-14.395-40.145-29.472c-12.321-18.164-12.486-42.218-0.424-57.178       c0.471-0.565,1.296-0.636,1.861-0.189c0.565,0.448,0.636,1.272,0.188,1.838c-12.887,15.949-9.471,39.273,0.542,54.068       c12.156,17.928,32.841,27.093,48.06,31.593C411.344,467.687,411.745,468.418,411.533,469.101z"/>
				</g>
				<g>
					<g>
						<path style="fill:#523E3F;" d="M489.631,478.336c-1.885,0.471-3.817,0.73-5.631,0.872c-4.453-1.673-8.788-3.675-12.863-5.984        c-0.636-0.353-0.848-1.154-0.495-1.79c0.353-0.613,1.154-0.848,1.79-0.495C477.851,474.001,483.647,476.475,489.631,478.336z"/>
					</g>
					<g>
						<path style="fill:#523E3F;" d="M499.926,471.009c-0.306,0.872-0.73,1.649-1.296,2.356c-6.785-1.955-13.358-4.712-19.46-8.151        c-0.636-0.353-0.872-1.154-0.495-1.79c0.353-0.636,1.154-0.848,1.767-0.495C486.545,466.368,493.141,469.101,499.926,471.009z        "/>
					</g>
				</g>
			</g>
		</g>
		<g>
			<g>
				<path style="fill:#8F76C9;" d="M320.148,141.131c0,3.875-6.996,6.596-8.131,10.092c-1.176,3.623,2.843,9.929,0.648,12.944      c-2.217,3.046-9.47,1.16-12.516,3.377c-3.016,2.195-3.451,9.688-7.074,10.864c-3.496,1.135-8.237-4.634-12.112-4.634      c-3.875,0-8.616,5.769-12.112,4.634c-3.623-1.176-4.059-8.669-7.074-10.864c-3.046-2.217-10.299-0.331-12.516-3.376      c-2.195-3.016,1.825-9.321,0.648-12.945c-1.135-3.496-8.131-6.216-8.131-10.091c0-3.875,6.996-6.595,8.131-10.092      c1.177-3.623-2.843-9.929-0.648-12.945c2.217-3.046,9.47-1.16,12.516-3.376c3.016-2.195,3.451-9.688,7.074-10.864      c3.496-1.135,8.237,4.634,12.111,4.634c3.875,0,8.616-5.769,12.112-4.634c3.623,1.176,4.058,8.67,7.074,10.864      c3.046,2.217,10.299,0.331,12.516,3.377c2.195,3.016-1.825,9.321-0.648,12.944C313.152,134.536,320.148,137.256,320.148,141.131      z"/>
			</g>
			<path style="fill:#523E3F;" d="M417.768,47.042L252.66,15.121c-0.891-0.171-1.769,0.414-1.944,1.313     c-0.173,0.9,0.414,1.77,1.313,1.944l33.858,6.546c-2.925,8.248-0.355,16.9,2.147,25.274c2.202,7.368,4.479,14.985,2.934,22.199     c-1.055,4.926-3.735,9.178-6.572,13.68c-2.169,3.439-4.41,6.996-5.858,10.884c-3.936,10.569-1.36,23.164,6.41,31.339     c0.217,0.229,0.509,0.344,0.801,0.344c0.274,0,0.548-0.101,0.761-0.304c0.444-0.421,0.461-1.121,0.04-1.563     c-7.2-7.576-9.587-19.248-5.941-29.044c1.368-3.674,3.547-7.132,5.656-10.477c2.816-4.467,5.727-9.086,6.864-14.396     c1.664-7.768-0.695-15.661-2.976-23.295c-2.545-8.516-4.943-16.564-2.075-24.217l129.058,24.951     c0.106,0.021,0.212,0.03,0.317,0.03c0.778,0,1.473-0.551,1.626-1.344C419.255,48.086,418.667,47.216,417.768,47.042z"/>
		</g>
		<g>
			<g>
				<g>
					<path style="fill:#523E3F;" d="M35.319,504.111c-0.983,0-1.97-0.038-2.961-0.118c-6.235-0.504-12.604-3.668-16.227-8.061       c-2.529-3.067-3.655-6.579-3.257-10.156c1.097-9.86,12.346-14.572,20.714-17.259c0.353-0.114,0.732,0.081,0.846,0.435       c0.113,0.354-0.081,0.733-0.435,0.847c-8.01,2.573-18.775,7.044-19.786,16.126c-0.358,3.207,0.666,6.371,2.957,9.15       c3.402,4.126,9.407,7.1,15.297,7.576c10.482,0.846,20.672-3.215,30.522-7.142c9.421-3.757,19.146-7.643,29.344-7.392       c7.665,0.188,15.031,2.721,22.155,5.171c3.335,1.148,6.785,2.334,10.212,3.26c12.993,3.509,24.433,1.58,30.602-5.163       c0.253-0.275,0.68-0.292,0.951-0.043c0.274,0.251,0.293,0.677,0.042,0.951c-9.389,10.265-25.469,7.303-31.947,5.554       c-3.471-0.938-6.942-2.131-10.298-3.286c-7.026-2.417-14.293-4.916-21.75-5.099c-9.918-0.234-19.517,3.591-28.812,7.297       C54.41,500.379,45.052,504.111,35.319,504.111z"/>
				</g>
				<g>
					<g>
						<path style="fill:#FF7A79;" d="M167.872,481.861c-0.236,0.919-1.178,1.084-1.979,1.108c-1.39,0.047-2.803,0.024-4.194,0        c-2.992-0.047-6.008-0.189-9-0.236c-10.272-0.165-20.52-0.306-30.768-0.471c-12.698-0.189-25.397-0.377-38.071-0.589        c-12.18-0.165-24.337-0.353-36.493-0.542c-8.67-0.141-17.34-0.259-26.009-0.4c-2.403-0.047-4.83-0.071-7.256-0.118        c11.096-31.828,43.726-54.846,77.439-54.61c18.211,0.118,36.069,7.068,50.228,18.423c5.843,4.665,11.096,10.107,15.502,16.162        c3.84,5.254,7.586,10.884,9.706,17.104c0.283,0.848,0.542,1.72,0.777,2.591C167.896,480.8,168.013,481.343,167.872,481.861z"/>
					</g>
					<g>
						<path style="fill:#523E3F;" d="M145.958,461.264c0,2.408-1.953,4.361-4.361,4.361c-2.408,0-4.361-1.953-4.361-4.361        c0-2.408,1.953-4.361,4.361-4.361C144.005,456.903,145.958,458.855,145.958,461.264z"/>
					</g>
					<g>
						<path style="fill:#FF7A79;" d="M95.983,440.014c-6.378-5.671-11.736-12.857-13.659-21.172        c-1.923-8.315,0.091-17.826,6.417-23.555c6.473-5.863,16.598-6.79,24.541-3.159c7.943,3.631,13.66,11.275,16.049,19.675        c2.389,8.401,1.69,17.466-0.79,25.841C117.609,438.719,106.915,438.941,95.983,440.014z"/>
					</g>
					<g>
						<path style="fill:#523E3F;" d="M167.872,481.861c-0.236,0.919-1.178,1.084-1.979,1.108c-1.39,0.047-2.803,0.024-4.194,0        c0.236-2.851,2.662-5.984,5.277-5.277c0.283,0.848,0.542,1.72,0.777,2.591C167.896,480.8,168.013,481.343,167.872,481.861z"/>
					</g>
				</g>
				<g>
					<path style="fill:#523E3F;" d="M90.466,426.983c-0.216,0-0.428-0.104-0.558-0.296c-4.206-6.218-5.142-14.203-2.442-20.839       c2.832-6.962,9.584-11.886,16.8-12.254c7.424-0.389,14.834,4.46,17.209,11.257c0.123,0.35-0.061,0.735-0.413,0.857       c-0.352,0.122-0.734-0.063-0.857-0.414c-2.186-6.254-8.984-10.701-15.87-10.357c-6.704,0.342-12.982,4.931-15.622,11.417       c-2.533,6.225-1.647,13.727,2.309,19.578c0.209,0.308,0.127,0.726-0.179,0.935C90.727,426.945,90.595,426.983,90.466,426.983z"/>
				</g>
			</g>
			<g>
				<g>
					<path style="fill:#FFF3EE;" d="M65.489,437.545c-0.396,0.521-1.005,0.826-1.592,1.114c-1.713,0.839-3.479,1.693-5.381,1.831       c-0.418,0.03-0.849,0.024-1.24-0.127s-0.736-0.471-0.824-0.88c-0.112-0.526,0.211-1.044,0.567-1.447       c1.389-1.572,3.426-2.396,5.429-3.018c0.616-0.191,1.259-0.37,1.897-0.282C65.692,434.921,66.319,436.452,65.489,437.545z"/>
				</g>
				<g>
					<path style="fill:#FFF3EE;" d="M52.932,444.29c-0.552,0.82-1.408,1.377-2.24,1.911c-2.395,1.538-4.791,3.076-7.186,4.614       c-0.471,0.302-0.955,0.61-1.502,0.727c-0.547,0.117-1.18,0.003-1.54-0.425c-0.657-0.781-0.067-1.96,0.574-2.753       c2.326-2.879,5.333-5.204,8.705-6.732c0.847-0.384,2.217-0.847,3.089-0.243C53.763,442.033,53.492,443.457,52.932,444.29z"/>
				</g>
			</g>
		</g>
		<g>
			<path style="fill:#FFBC51;" d="M237.721,48.12c2.049,2.968,6.699,5.684,10.333,6.036l17.768,1.717     c3.634,0.351,4.128,2.35,1.096,4.439l-14.82,10.218c-3.03,2.092-5.858,6.758-6.282,10.371l-2.072,17.664     c-0.424,3.613-2.447,4.141-4.496,1.174l-10.017-14.511c-2.049-2.968-6.699-5.684-10.334-6.036l-17.767-1.717     c-3.635-0.352-4.128-2.35-1.096-4.44l14.821-10.218c3.03-2.091,5.858-6.758,6.282-10.371l2.072-17.664     c0.424-3.614,2.447-4.141,4.495-1.173L237.721,48.12z"/>
		</g>
		<g>
			<path style="fill:#FFBC51;" d="M338.821,32.957c0.427,4.475,3.838,10.254,7.578,12.844l18.291,12.66     c3.741,2.589,3.065,5.064-1.504,5.496l-22.332,2.117c-4.568,0.435-10.479,3.796-13.135,7.47l-12.982,17.964     c-2.656,3.674-5.178,3.02-5.606-1.454l-2.086-21.874c-0.427-4.474-3.837-10.254-7.579-12.844l-18.29-12.658     c-3.741-2.591-3.064-5.064,1.504-5.498l22.333-2.117c4.567-0.435,10.479-3.796,13.135-7.47L331.13,9.631     c2.656-3.676,5.177-3.02,5.604,1.455L338.821,32.957z"/>
		</g>
		<g>
			<path style="fill:#FFBC51;" d="M374.48,99.86c0.318,3.336,2.861,7.643,5.649,9.574l13.634,9.437     c2.789,1.93,2.285,3.775-1.121,4.097l-16.647,1.579c-3.405,0.324-7.811,2.829-9.791,5.568l-9.677,13.39     c-1.98,2.739-3.86,2.251-4.179-1.084l-1.555-16.305c-0.318-3.335-2.861-7.643-5.649-9.574l-13.634-9.436     c-2.789-1.932-2.284-3.775,1.121-4.098l16.647-1.578c3.404-0.324,7.811-2.829,9.791-5.568l9.678-13.39     c1.98-2.74,3.859-2.252,4.177,1.084L374.48,99.86z"/>
		</g>
	</g>
</g>
</svg>
